PathFileType	4	(X/Y/Z)	C:/Users/beibeiliu/ov580/test_trc/User1\sequence.20_training_dense_left.trc
DataRate	CameraRate	NumFrames	NumMarkers	Units	OrigDataRate	OrigDataStartFrame	OrigNumFrames
120	120	13	19	mm	120	198	263
Frame#	Time	ThumbCMC			ThumbMCP			ThumbIP			ThumbTip			IndexMCP			IndexPIP			IndexTip			MiddleMCP			MiddlePIP			MiddleTip			RingMCP			RingPIP			RingTip			PinkyMCP			PinkyPIP			PinkyTip			BackHand1			BackHand2			BackHand3	
		X0	Y0	Z0	X1	Y1	Z1	X2	Y2	Z2	X3	Y3	Z3	X4	Y4	Z4	X5	Y5	Z5	X6	Y6	Z6	X7	Y7	Z7	X8	Y8	Z8	X9	Y9	Z9	X10	Y10	Z10	X11	Y11	Z11	X12	Y12	Z12	X13	Y13	Z13	X14	Y14	Z14	X15	Y15	Z15	X16	Y16	Z16	X17	Y17	Z17	X18	Y18	Z18	
197	1.64167	-138.421	-26.6858	41.0636	-129.597	-45.79	19.3071	-117.03	-52.204	-7.57094	-108.33	-64.1207	-29.6212	-140.165	17.1962	-34.7766	-146.664	17.5128	-67.0835	-151.151	-0.688558	-88.7385	-165.528	26.0756	-42.4136	-162.556	19.231	-76.2221	-168.259	-16.4809	-95.712	-184.835	23.1864	-40.8729	-182.819	15.0554	-73.0066	-189.46	-10.9525	-88.7218	-205.937	12.1469	-28.2923	-203.93	8.21358	-53.8947	-195.726	-4.23696	-76.5534	-191.19	18.592	16.1361	-197.686	13.0624	51.633	-160.621	10.4431	33.5572	
198	1.65	-144.47	-28.8072	40.7469	-138.098	-45.7473	13.8519	-126.216	-54.7537	-7.9684	-120.014	-64.0868	-34.4351	-151.647	13.6947	-35.1445	-154.732	17.1033	-68.6105	-166.155	-2.4682	-91.943	-176.303	24.7393	-48.5861	-179.841	14.6112	-81.6664	-182.337	-18.1425	-97.5073	-198.496	21.3179	-40.9785	-200.052	12.2794	-75.6485	-200.028	-12.2979	-89.7681	-218.167	10.4982	-26.0036	-216.737	7.73991	-53.5661	-209.993	-6.29183	-76.6563	-199.98	18.8264	13.183	-201.655	13.1424	48.6478	-166.74	9.77005	34.5364	
199	1.65833	-154.455	-26.4033	33.6836	-144.675	-44.6288	8.27154	-132.677	-54.5248	-16.6614	-131.109	-65.3056	-36.3462	-165.043	14.7959	-40.5912	-170.23	14.6422	-70.4009	-177.09	-5.0038	-95.0736	-184.89	22.9559	-49.417	-191.704	14.5501	-79.8989	-199.1	-17.0256	-97.2296	-206.727	19.0345	-42.0017	-209.671	10.6748	-74.023	-215.09	-16.9674	-90.0009	-228.616	9.327	-30.9681	-225.973	4.91245	-51.6417	-223.96	-10.4654	-75.5953	-204.352	15.5095	13.1604	-208.275	13.7301	48.5772	-169.207	10.4158	28.4612	
200	1.66667	-157.784	-25.9106	30.9668	-149.717	-45.2989	6.21868	-139.144	-56.3331	-17.2935	-140.968	-65.4936	-40.1885	-174.841	14.841	-43.6106	-179.365	14.3654	-71.6776	-187.361	-6.51272	-96.9056	-198.376	21.5959	-45.8568	-200.368	12.2104	-84.3027	-211.47	-19.3515	-96.3589	-214.412	17.2488	-39.8451	-221.659	10.9664	-72.7623	-224.117	-18.4081	-89.0906	-235.09	6.994	-25.7776	-236.314	2.73142	-51.6769	-233.97	-13.0965	-77.6129	-214.409	15.0404	17.0132	-215.194	13.6853	49.7413	-180.803	10.8293	31.553	
201	1.675	-160.357	-26.6173	29.368	-150.885	-49.0249	8.90044	-145.837	-56.9898	-15.459	-145.722	-69.2009	-39.1283	-182.309	11.9584	-42.2542	-190.894	11.3972	-75.7451	-197.893	-7.34417	-94.8436	-202.05	21.2437	-48.4457	-210.447	10.1553	-83.779	-219.123	-20.2408	-97.3173	-226.557	18.5303	-42.5834	-232.879	6.95708	-74.4987	-236.43	-22.0068	-88.2785	-243.599	6.9221	-26.2902	-245.641	0.712002	-54.2663	-241.761	-15.1079	-74.2846	-219.414	15.9254	13.3899	-215.788	12.4786	51.0195	-183.585	10.5794	30.884	
202	1.68333	-163.128	-26.8918	32.6381	-158.426	-44.9984	3.63666	-150.913	-56.3581	-18.9431	-148.736	-71.4518	-40.9615	-183.14	10.8399	-42.3204	-193.257	11.8364	-76.3629	-205.496	-8.89596	-94.6454	-206.029	19.9476	-47.3882	-213.978	10.4128	-84.7783	-226.558	-19.9176	-95.7119	-225.907	16.6622	-42.0939	-232.888	8.78459	-72.1017	-238.81	-19.5958	-85.8595	-245.98	5.72452	-28.0477	-248.505	1.94344	-49.4943	-245.686	-15.1762	-73.9233	-220.243	14.5363	13.1342	-217.01	14.6354	48.7102	-187.059	9.73978	25.2181	
203	1.69167	-162.406	-25.7904	29.049	-155.092	-48.202	3.44329	-149.506	-59.338	-20.0629	-152.982	-70.1754	-40.1497	-186.822	11.4262	-42.957	-193.112	12.3876	-73.7166	-206.95	-9.52277	-95.0084	-208.223	19.4674	-46.9123	-214.856	11.1348	-82.6776	-222.644	-21.0869	-96.146	-231.048	16.4	-40.6645	-235.197	4.15526	-74.9512	-243.257	-23.7535	-86.5317	-246.419	5.63533	-22.518	-247.939	0.404118	-51.1857	-243.787	-15.3668	-70.7218	-224.124	15.5901	13.7335	-222.376	15.4153	50.7735	-184.654	9.05217	25.7149	
204	1.7	-164.339	-24.7274	30.6423	-154.011	-47.6234	5.9951	-151.655	-58.7629	-14.8312	-151.112	-72.307	-41.2255	-181.416	11.41	-46.9809	-195.498	9.50962	-74.7805	-204.155	-13.0751	-96.4387	-208.356	19.8852	-47.2791	-214.388	12.4331	-80.288	-224.908	-21.3859	-94.2169	-225.553	15.8742	-41.0019	-233.093	4.16861	-74.5918	-239.776	-20.2194	-84.9875	-244.56	6.68004	-22.3809	-246.019	1.79534	-49.9902	-243.857	-15.1509	-72.4758	-218.428	15.164	15.6205	-216.588	13.9939	49.4258	-184.655	10.3275	28.4888	
205	1.70833	-157.32	-27.8012	32.0816	-151.394	-49.5964	11.4373	-147.016	-59.5433	-17.2889	-145.143	-74.265	-37.5445	-176.89	8.95311	-41.0144	-184.044	8.75072	-74.8735	-197.288	-11.5591	-94.7805	-198.753	19.4292	-47.1451	-209.453	11.6471	-80.3707	-217.691	-23.341	-94.7433	-223.314	18.0781	-43.2044	-228.859	6.05572	-74.6291	-229.929	-18.8266	-86.2761	-237.03	8.29282	-26.8301	-240.204	2.64889	-50.4351	-233.37	-12.7937	-71.6774	-214.018	16.8601	16.2034	-218.024	14.3295	50.5226	-182.696	9.29132	29.8196	
206	1.71667	-155.277	-29.0795	33.1945	-147.749	-50.9982	11.7015	-143.572	-60.8528	-13.9951	-140.592	-75.5033	-39.1087	-172.056	8.97907	-40.095	-177.02	7.51483	-74.7198	-187.301	-12.2688	-94.9015	-190.586	18.872	-48.0689	-201.357	10.6605	-80.1673	-206.692	-21.7025	-94.4164	-214.994	17.8207	-40.0651	-217.764	8.0537	-73.8815	-225.699	-21.0931	-86.5304	-232.072	7.90189	-22.7423	-231.339	3.56502	-51.1759	-224.678	-15.0448	-74.933	-207.444	16.3548	16.2356	-212.385	14.5205	52.7066	-174.788	6.67687	28.5799	
207	1.725	-151.772	-30.7519	38.2233	-142.485	-53.9253	15.12	-135.452	-63.431	-11.7841	-133.276	-78.0967	-32.7475	-161.208	7.98671	-39.9679	-165.984	7.19404	-69.9757	-177.307	-11.8753	-91.1081	-183.063	18.6993	-46.6836	-189.308	11.2391	-78.7949	-199.284	-22.3362	-94.8094	-201.475	16.6452	-41.2646	-210.836	9.39244	-71.6846	-213.451	-17.6724	-85.5515	-226.682	10.5129	-25.8959	-225.629	6.71342	-52.2217	-221.403	-13.5999	-74.6042	-201.309	14.6904	18.1995	-204.823	15.2457	50.5114	-170.721	4.9749	34.722	
208	1.73333	-147.169	-33.6003	42.5794	-138.629	-53.2485	16.4622	-128.774	-66.2431	-8.03088	-128.517	-79.5823	-32.7962	-154.329	6.75864	-36.7207	-155.042	6.35768	-69.2866	-167.547	-12.2727	-89.566	-174.177	18.2139	-42.3896	-177.837	9.45938	-77.3924	-190.765	-24.5309	-93.8667	-196.992	18.5279	-38.5295	-196.511	6.16289	-73.1878	-204.819	-20.617	-86.4029	-213.349	10.3898	-25.4039	-213.89	4.21579	-53.2583	-210.013	-10.0099	-71.6958	-195.513	13.5966	20.9827	-200.747	13.4947	52.8999	-166.399	4.60396	35.6606	
209	1.74167	-141.846	-35.3209	43.9784	-132.252	-56.8168	22.1024	-123.054	-67.3497	-7.87221	-122.651	-79.501	-28.122	-143.086	3.90875	-31.4885	-147.932	5.02079	-65.186	-159.711	-14.7014	-88.3204	-165.881	18.1334	-41.1536	-168.685	9.19184	-77.5466	-175.062	-23.7181	-93.467	-183.664	16.9917	-37.055	-184.931	8.80765	-70.8702	-193.013	-20.99	-85.8265	-207.636	10.7141	-25.7311	-206.771	6.05727	-52.8447	-199.819	-14.9576	-73.9909	-188.528	14.8663	20.6233	-190.106	12.598	49.8017	-159.097	4.32142	38.9429	
